<svg width="124" height="24" viewBox="0 0 124 24" fill="none" xmlns="http://www.w3.org/2000/svg" class="connect-xportal-heading-logo"><g clip-path="url(#clip0_3384_15820)"><mask id="mask0_3384_15820" maskUnits="userSpaceOnUse" x="0" y="0" width="124" height="24" style="mask-type: luminance;"><path d="M123.055 0H0V24H123.055V0Z" fill="white"></path></mask><g mask="url(#mask0_3384_15820)"><path d="M23.2646 3.04248H34.5764C39.2586 3.04248 41.8049 5.24333 41.8049 9.20603C41.8049 13.1688 39.2586 15.4434 34.5764 15.4434H26.7469V23.6622H23.2625V3.04248H23.2646ZM26.749 6.16013V12.3237H34.5031C37.0117 12.3237 38.2116 11.1136 38.2116 9.2409C38.2116 7.36825 37.0515 6.15809 34.5031 6.15809H26.749V6.16013Z" fill="black"></path><path d="M63.0444 14.3658C63.0444 19.8346 58.796 23.9996 53.2672 23.9996C47.7389 23.9996 43.4905 19.8346 43.4905 14.3658C43.4905 8.89701 47.701 4.73193 53.2672 4.73193C58.8339 4.73193 63.0444 8.89701 63.0444 14.3658ZM59.5107 14.3658C59.5107 10.6831 56.9903 7.85728 53.2694 7.85728C49.549 7.85728 47.0285 10.7581 47.0285 14.3658C47.0285 17.9735 49.5468 20.8743 53.2694 20.8743C56.9924 20.8743 59.5107 18.0484 59.5107 14.3658Z" fill="black"></path><path d="M105.501 12.0607H111.78C111.78 9.23475 109.624 7.7085 106.616 7.7085C103.609 7.7085 102.344 9.41985 102.046 10.0146H98.6279C99.1117 7.82077 101.563 4.73291 106.616 4.73291C111.967 4.73291 115.014 7.74592 115.014 12.0232V18.829C115.014 20.1307 115.461 20.6152 116.649 20.7254V23.776C114.011 23.701 112.414 22.7341 111.929 20.9126C111.038 22.2892 109.107 24.0005 105.835 24.0005C101.488 24.0005 98.1067 21.5821 98.1067 17.7894C98.1067 13.9966 100.894 12.0607 105.501 12.0607ZM111.78 16.6354V14.7389H105.651C103.125 14.7389 101.488 15.7432 101.488 17.7894C101.488 19.8355 103.495 21.1746 106.132 21.1746C109.105 21.1746 111.78 19.7232 111.78 16.6374V16.6354Z" fill="black"></path><path d="M119.683 0H123.055V23.662H119.683V0Z" fill="black"></path><path d="M95.7465 23.6605H91.4047C87.1365 23.6605 84.9832 21.6191 84.9832 17.5364V8.37099H79.5637V5.32766H84.9832V1.01465H88.3605V5.32766H95.7465V8.37099H88.3605V16.7584C88.3605 19.4304 89.2132 20.5445 92.1472 20.5445H95.7465V23.6625V23.6605Z" fill="black"></path><path d="M69.4729 23.6619H66.0784V5.21641H69.4729V8.57031C69.9947 7.24297 71.5621 5.07031 75.888 5.07031H77.8777V8.42428H75.8137C71.0782 8.42428 69.475 9.99163 69.475 13.2328V23.6619H69.4729Z" fill="black"></path><path d="M10.0822 8.11365L18.2053 3.90037L16.8397 1.35205L9.4014 4.27284C9.20993 4.34816 8.99753 4.34816 8.80598 4.27284L1.36566 1.35205L0 3.90037L8.12318 8.11365L0 12.3249L1.36566 14.8732L8.80395 11.9524C8.99543 11.8771 9.20783 11.8771 9.3993 11.9524L16.8376 14.8732L18.2033 12.3249L10.0801 8.11163L10.0822 8.11365Z" fill="#23F7DD"></path></g></g><defs><clipPath id="clip0_3384_15820"><rect width="123.75" height="24" fill="white"></rect></clipPath></defs></svg>